<svg width="33" height="24" xmlns="http://www.w3.org/2000/svg" xmlns:xlink="http://www.w3.org/1999/xlink" xmlns:svgjs="http://svgjs.com/svgjs" viewBox="0 0.369 33 23.262" fill="#fff"><svg xmlns="http://www.w3.org/2000/svg" width="33" height="24" viewBox="1.999 1.975 31.951 22.522"><path paint-order="stroke fill markers" fill-rule="evenodd" d="M33.95 23.503v.002a.993.993 0 0 1-.995.992h-7.412c.556-.123.972-.614.972-1.205v-.002s0-4.504-3.301-6.142c-1.412-.7-1.505-.566-2.206-.732l.02-1.95s-.771-.588-1.01-2.43c-.483.139-.642-.565-.67-1.013-.027-.431-.28-1.783.309-1.66-.12-.903-.207-1.716-.165-2.148.148-1.512 1.61-3.093 3.861-3.207 2.649.114 3.698 1.694 3.845 3.206.043.432-.051 1.246-.172 2.146.589-.12.333 1.228.304 1.66-.025.449-.188 1.15-.67 1.01-.24 1.843-1.01 2.426-1.01 2.426l.017 1.948s.488.278 2.546 1.127c2.058.85 1.412.214 3.088 1.045 2.65 1.314 2.65 4.927 2.65 4.927h-.001zM19.023 16.84c2.262.935 1.552.235 3.395 1.15 2.912 1.443 2.912 5.415 2.912 5.415h-.001v.003c0 .602-.49 1.09-1.093 1.09H3.093A1.091 1.091 0 0 1 2 23.407v-.003s0-3.972 2.911-5.417c1.843-.913 1.133-.171 3.395-1.106 2.262-.933 2.798-1.26 2.798-1.26l.021-2.152s-.847-.646-1.11-2.67c-.53.153-.705-.621-.736-1.113-.029-.475-.307-1.96.34-1.825-.133-.992-.228-1.886-.181-2.359.162-1.664 1.769-3.4 4.244-3.528 2.911.126 4.065 1.863 4.226 3.525.047.475-.056 1.369-.189 2.36.647-.133.366 1.349.334 1.824-.028.493-.207 1.263-.736 1.11-.264 2.026-1.111 2.666-1.111 2.666l.02 2.142s.535.304 2.797 1.238z"/></svg></svg>